# xmcd
# Track frame offsets:
# 150
# 17630
# 35639
# 51118
# 61261
# 77785
#
# Disc length: 1232 seconds
# Revision: 0
# Processed by: cddbd v1.4PL0 Copyright (c) Steve Scherf et al.
# Submitted via: VisiTrax 2.9.5.181 - For more info visit www.synapsa.com
#
DISCID=4504ce06
DTITLE=Ludov - Dois A Rodar
DYEAR=2003
DGENRE=Rock
TTITLE0=Dois A Rodar
TTITLE1=Da Primeira Vez
TTITLE2=Aconteceu
TTITLE3=Trânsito
TTITLE4=Princesa
TTITLE5=Melancolia
EXTD=ECD\nwww.ludov.com.br\nCooperdisc Editorial Log Ltda.
EXTT0=
EXTT1=
EXTT2=
EXTT3=
EXTT4=
EXTT5=
PLAYORDER=
